<svg width="96" height="130" viewBox="0 0 96 130" fill="none" xmlns="http://www.w3.org/2000/svg">
<path d="M0.967 130V107.674L43.606 72.721C52.024 65.767 57.819 60.216 60.991 56.068C64.163 51.798 65.749 47.101 65.749 41.977C65.749 36.731 64.163 32.644 60.991 29.716C57.819 26.788 53.671 25.324 48.547 25.324C43.789 25.324 39.458 26.666 35.554 29.35C31.772 31.912 27.38 36.304 22.378 42.526L2.614 26.605C9.324 17.455 16.217 10.745 23.293 6.475C30.491 2.20499 39.519 0.069993 50.377 0.069993C63.675 0.069993 74.35 3.72999 82.402 11.05C90.454 18.248 94.48 27.886 94.48 39.964C94.48 46.918 93.138 53.201 90.454 58.813C87.77 64.303 84.293 69.183 80.023 73.453C75.753 77.601 69.348 82.969 60.808 89.557L39.946 105.661H95.761V130H0.967Z" fill="url(#paint0_linear_1_22)"/>
<defs>
<linearGradient id="paint0_linear_1_22" x1="12.8438" y1="7.60682" x2="41.8523" y2="138.4" gradientUnits="userSpaceOnUse">
<stop stop-color="#8A2645"/>
<stop offset="0.670466" stop-color="#291725"/>
<stop offset="0.989129" stop-color="#171422"/>
</linearGradient>
</defs>
</svg>
