<svg width="98" height="132" viewBox="0 0 98 132" fill="none" xmlns="http://www.w3.org/2000/svg">
<path d="M50.913 131.196C30.051 131.196 13.398 123.815 0.954 109.053L20.352 90.57C29.502 100.818 39.811 105.942 51.279 105.942C56.647 105.942 60.978 104.539 64.272 101.733C67.688 98.805 69.396 94.901 69.396 90.021C69.396 84.775 67.2 80.749 62.808 77.943C58.416 75.137 52.255 73.734 44.325 73.734H32.613L28.221 55.8L58.782 25.056H8.457V0.899991H95.016V22.128L62.625 53.055C85.561 56.959 97.029 69.037 97.029 89.289C97.029 101.611 92.82 111.676 84.402 119.484C76.106 127.292 64.943 131.196 50.913 131.196Z" fill="url(#paint0_linear_1_19)"/>
<defs>
<linearGradient id="paint0_linear_1_19" x1="14.6625" y1="6.60682" x2="43.9013" y2="137.292" gradientUnits="userSpaceOnUse">
<stop stop-color="#8A2645"/>
<stop offset="0.670466" stop-color="#291725"/>
<stop offset="0.989129" stop-color="#171422"/>
</linearGradient>
</defs>
</svg>
