<svg width="98" height="132" viewBox="0 0 98 132" fill="none" xmlns="http://www.w3.org/2000/svg">
<path d="M48.815 131.196C30.271 131.196 14.289 124.791 0.869 111.981L17.888 91.668C28.136 100.94 38.323 105.576 48.449 105.576C55.159 105.576 60.405 103.99 64.187 100.818C67.969 97.646 69.86 93.193 69.86 87.459C69.86 82.091 67.786 77.882 63.638 74.832C59.49 71.66 54 70.074 47.168 70.074C40.336 70.074 33.199 71.66 25.757 74.832L9.47 64.035L13.13 0.899991H91.82V25.605H37.286L35.822 47.748C41.678 46.284 47.29 45.552 52.658 45.552C65.956 45.552 76.753 48.968 85.049 55.8C93.345 62.632 97.493 73.002 97.493 86.91C97.493 100.452 93.04 111.249 84.134 119.301C75.35 127.231 63.577 131.196 48.815 131.196Z" fill="url(#paint0_linear_1_21)"/>
<defs>
<linearGradient id="paint0_linear_1_21" x1="14.025" y1="6.60682" x2="42.8066" y2="137.505" gradientUnits="userSpaceOnUse">
<stop stop-color="#8A2645"/>
<stop offset="0.670466" stop-color="#291725"/>
<stop offset="0.989129" stop-color="#171422"/>
</linearGradient>
</defs>
</svg>
