<svg width="54" height="56" viewBox="0 0 54 56" fill="none" xmlns="http://www.w3.org/2000/svg">
<path d="M42.3071 1.01465L53.0873 12.2522V54.9857H12.8164V55.1252H53.2249V12.3936L42.3071 1.01465Z" fill="#909090"/>
<path d="M42.1743 0.875H12.6797V54.9855H53.0882V12.2539L42.1743 0.875Z" fill="#F4F4F4"/>
<path d="M12.3806 3.78125H0V17.0086H38.9438V3.78125H12.3806Z" fill="#7A7B7C"/>
<path d="M39.1531 16.7839H0.253906V3.54688H39.1531V16.7839Z" fill="#DD2025"/>
<path d="M13.1534 5.78467H13.0953H12.6942H10.6211V15.0847H12.6128V11.9479L13.0527 11.973C13.48 11.9657 13.9034 11.8891 14.3062 11.7464C14.6594 11.6249 14.9844 11.4331 15.2614 11.1825C15.5433 10.9439 15.7656 10.6427 15.9105 10.3029C16.1048 9.73813 16.1742 9.1379 16.1139 8.54367C16.1018 8.11918 16.0274 7.69877 15.893 7.29592C15.7707 7.00511 15.5892 6.74296 15.3601 6.52614C15.1309 6.30931 14.8591 6.14258 14.562 6.03654C14.3051 5.94354 14.0396 5.87605 13.7695 5.83504C13.565 5.80348 13.3584 5.78665 13.1515 5.78467M12.7853 10.2293H12.6128V7.36179H12.9868C13.1518 7.34989 13.3174 7.37523 13.4713 7.43593C13.6253 7.49663 13.7636 7.59114 13.8761 7.71248C14.1092 8.02445 14.2337 8.40417 14.2307 8.79361C14.2307 9.27023 14.2307 9.70229 13.8005 10.0065C13.4907 10.1769 13.138 10.2556 12.7853 10.2293Z" fill="#464648"/>
<path d="M19.8955 5.75952C19.6804 5.75952 19.4712 5.77502 19.3239 5.78083L18.8628 5.79246H17.3516V15.0925H19.1302C19.8099 15.1111 20.4867 14.9959 21.1219 14.7534C21.6333 14.5506 22.0861 14.2236 22.4394 13.8021C22.7831 13.3767 23.0297 12.8815 23.1621 12.3509C23.3143 11.75 23.3886 11.132 23.383 10.5122C23.4206 9.78014 23.3639 9.04627 23.2144 8.32865C23.0726 7.80041 22.8069 7.31357 22.4394 6.90846C22.1511 6.58134 21.7982 6.31746 21.4029 6.13346C21.0634 5.97636 20.7063 5.86057 20.3392 5.78858C20.1932 5.76447 20.0454 5.75345 19.8974 5.75565M19.5448 13.3836H19.3511V7.44708H19.3763C19.7757 7.40112 20.1798 7.4732 20.5387 7.6544C20.8016 7.86428 21.0158 8.12869 21.1665 8.4294C21.3292 8.74586 21.4229 9.09319 21.4416 9.44852C21.4591 9.87477 21.4416 10.2235 21.4416 10.5122C21.4495 10.8448 21.4281 11.1774 21.3777 11.5061C21.318 11.8437 21.2076 12.1703 21.0502 12.4749C20.8722 12.7581 20.6316 12.9967 20.3469 13.1724C20.1079 13.327 19.8248 13.3991 19.5409 13.3778" fill="#464648"/>
<path d="M29.3839 5.79248H24.6758V15.0925H26.6675V11.4035H29.1863V9.67523H26.6675V7.52073H29.38V5.79248" fill="#464648"/>
<path d="M37.8156 36.2442C37.8156 36.2442 43.9923 35.1243 43.9923 37.2342C43.9923 39.3442 40.1658 38.4859 37.8156 36.2442ZM33.2489 36.405C32.2675 36.6218 31.3111 36.9393 30.3949 37.3524L31.1699 35.6087C31.9449 33.8649 32.749 31.4876 32.749 31.4876C33.6738 33.0441 34.7498 34.5056 35.9614 35.8509C35.0477 35.9871 34.1422 36.1734 33.2489 36.4089V36.405ZM30.8038 23.8112C30.8038 21.9725 31.3986 21.4707 31.8616 21.4707C32.3247 21.4707 32.8459 21.6935 32.8633 23.29C32.7125 24.8954 32.3763 26.4779 31.8616 28.0059C31.1566 26.723 30.7918 25.2809 30.8018 23.817L30.8038 23.8112ZM21.7963 44.186C19.9014 43.0525 25.7701 39.5631 26.8338 39.4507C26.828 39.4527 23.7803 45.3717 21.7963 44.186ZM45.7961 37.4842C45.7768 37.2904 45.6024 35.1456 41.7855 35.2367C40.1946 35.211 38.6044 35.3232 37.0328 35.5719C35.5105 34.0381 34.1995 32.3082 33.1346 30.4278C33.8055 28.4892 34.2115 26.4688 34.3416 24.4215C34.2854 22.0965 33.7294 20.7635 31.9469 20.7829C30.1644 20.8023 29.9048 22.362 30.1392 24.6831C30.3688 26.2429 30.802 27.7658 31.4276 29.213C31.4276 29.213 30.6042 31.7763 29.5153 34.326C28.4264 36.8758 27.6824 38.2127 27.6824 38.2127C25.789 38.8291 24.0065 39.7448 22.4028 40.9252C20.8063 42.4112 20.1572 43.5524 20.9981 44.6936C21.7227 45.6779 24.2589 45.9007 26.5258 42.9305C27.7302 41.3964 28.8306 39.7834 29.8195 38.1022C29.8195 38.1022 33.276 37.1548 34.3513 36.8952C35.4266 36.6355 36.7267 36.4302 36.7267 36.4302C36.7267 36.4302 39.8829 39.6057 42.9267 39.4934C45.9705 39.381 45.8233 37.674 45.8039 37.488" fill="#DD2025"/>
<path d="M42.0234 1.02441V12.4034H52.9374L42.0234 1.02441Z" fill="#909090"/>
<path d="M42.1719 0.875V12.2539H53.0858L42.1719 0.875Z" fill="#F4F4F4"/>
<path d="M13.0011 5.63525H12.9429H12.5419H10.4688V14.9353H12.4682V11.8004L12.91 11.8256C13.3374 11.8182 13.7607 11.7417 14.1636 11.5989C14.5168 11.4773 14.8417 11.2856 15.1187 11.0351C15.3985 10.7958 15.6188 10.4946 15.762 10.1554C15.9563 9.59066 16.0257 8.99042 15.9654 8.39619C15.9533 7.9717 15.8789 7.55129 15.7446 7.14844C15.6223 6.85764 15.4407 6.59548 15.2116 6.37866C14.9824 6.16184 14.7106 5.9951 14.4135 5.88907C14.1554 5.79516 13.8887 5.72701 13.6172 5.68563C13.4126 5.65407 13.2061 5.63723 12.9991 5.63525M12.6329 10.0799H12.4605V7.21238H12.8364C13.0014 7.20048 13.167 7.22581 13.3209 7.28651C13.4749 7.34721 13.6132 7.44173 13.7257 7.56307C13.9588 7.87503 14.0833 8.25476 14.0802 8.64419C14.0802 9.12082 14.0803 9.55288 13.6501 9.85707C13.3403 10.0275 12.9875 10.1042 12.6349 10.0779" fill="white"/>
<path d="M19.7452 5.61011C19.5301 5.61011 19.3208 5.62561 19.1736 5.63142L18.7183 5.64304H17.207V14.943H18.9857C19.6654 14.9617 20.3421 14.8465 20.9774 14.604C21.4887 14.4012 21.9415 14.0742 22.2949 13.6527C22.6385 13.2273 22.8852 12.732 23.0176 12.2015C23.1698 11.6006 23.244 10.9826 23.2385 10.3628C23.2761 9.63072 23.2194 8.89686 23.0699 8.17923C22.928 7.651 22.6624 7.16416 22.2949 6.75904C22.0066 6.43192 21.6537 6.16805 21.2583 5.98404C20.9189 5.82695 20.5617 5.71116 20.1947 5.63917C20.0487 5.61506 19.9008 5.60403 19.7529 5.60623M19.4003 13.2342H19.2065V7.29767H19.2317C19.6312 7.25171 20.0353 7.32378 20.3942 7.50498C20.6571 7.71486 20.8712 7.97928 21.022 8.27998C21.1846 8.59644 21.2784 8.94378 21.2971 9.29911C21.3145 9.72536 21.2971 10.0741 21.2971 10.3628C21.305 10.6953 21.2836 11.0279 21.2332 11.3567C21.1734 11.6943 21.063 12.0209 20.9057 12.3255C20.7276 12.6087 20.4871 12.8473 20.2024 13.023C19.9634 13.1776 19.6803 13.2497 19.3964 13.2284" fill="white"/>
<path d="M29.2355 5.64307H24.5273V14.9431H26.5191V11.2541H29.0378V9.52582H26.5191V7.37132H29.2316V5.64307" fill="white"/>
</svg>
