<svg width="137" height="46" viewBox="0 0 137 46" fill="none" xmlns="http://www.w3.org/2000/svg">
<path d="M135.947 43.4371C134.841 42.3862 133.746 41.3465 132.64 40.2956C132.568 39.95 132.395 39.6361 132.065 39.4086C131.471 38.9992 130.933 38.5796 130.384 38.1709L123.026 31.1873C121.723 29.9555 119.871 31.7712 121.028 33.123C122.13 34.4183 123.3 35.6258 124.494 36.767C84.1289 22.708 43.2405 10.1412 1.53736 0.617642C0.895045 0.474191 0.624319 1.43679 1.26629 1.60247C44.7304 12.9207 87.8054 25.6664 129.854 41.5077C130.237 41.8804 130.642 42.2535 131.025 42.6263C127.375 42.2689 123.724 41.9115 120.062 41.565C118.264 41.4034 118.254 44.1705 120.018 44.3426C124.978 44.854 129.938 45.3209 134.91 45.799C136.119 45.9181 136.79 44.2171 135.947 43.4149L135.947 43.4371Z" fill="white"/>
</svg>
