<svg width="137" height="46" viewBox="0 0 137 46" fill="none" xmlns="http://www.w3.org/2000/svg">
<path d="M0.997898 43.4371C2.10383 42.3862 3.19883 41.3465 4.30477 40.2956C4.37713 39.95 4.55001 39.6361 4.87983 39.4086C5.47352 38.9992 6.01148 38.5796 6.56072 38.1709L13.9192 31.1873C15.2223 29.9555 17.0734 31.7712 15.9166 33.123C14.8145 34.4183 13.6444 35.6258 12.4509 36.767C52.8159 22.708 93.7044 10.1412 135.407 0.617642C136.05 0.474191 136.32 1.43679 135.679 1.60247C92.2144 12.9207 49.1394 25.6664 7.09101 41.5077C6.7079 41.8804 6.30257 42.2535 5.91946 42.6263C9.57013 42.2689 13.2208 41.9115 16.8827 41.565C18.6806 41.4034 18.6907 44.1705 16.9264 44.3426C11.9668 44.854 7.00644 45.3209 2.0352 45.799C0.825712 45.9181 0.154421 44.2171 0.99754 43.4149L0.997898 43.4371Z" fill="white"/>
</svg>
